<?xml version="1.0" standalone="no"?>
<!DOCTYPE svg PUBLIC "-//W3C//DTD SVG 20010904//EN"
 "http://www.w3.org/TR/2001/REC-SVG-20010904/DTD/svg10.dtd">
<svg version="1.0" xmlns="http://www.w3.org/2000/svg"
 width="1536.000000pt" height="1024.000000pt" viewBox="0 0 1536.000000 1024.000000"
 preserveAspectRatio="xMidYMid meet">

<g transform="translate(0.000000,1024.000000) scale(0.100000,-0.100000)"
fill="#000000" stroke="none">
<path d="M4445 7147 c52 -63 282 -291 375 -372 270 -233 522 -369 865 -466
214 -60 429 -100 870 -159 571 -76 815 -122 1087 -204 402 -122 621 -299 635
-513 12 -165 -96 -293 -348 -412 -149 -71 -302 -121 -632 -207 -698 -181 -996
-323 -1287 -614 -109 -108 -185 -206 -296 -376 -221 -341 -495 -646 -684 -757
-69 -41 -40 -32 60 18 258 130 429 273 796 671 241 261 370 383 527 501 212
158 402 252 694 344 118 37 205 59 661 168 366 88 555 160 719 273 128 89 201
188 223 308 26 139 -60 310 -225 448 -255 211 -639 353 -1388 513 -796 170
-1176 261 -1502 358 -359 107 -599 199 -868 334 -97 48 -207 108 -243 132 -63
42 -64 43 -39 12z m157 -97 c26 -13 44 -28 42 -32 -3 -4 3 -5 12 -1 13 5 15 3
9 -7 -5 -8 -4 -11 3 -6 6 3 31 -3 55 -15 37 -18 44 -26 41 -47 -1 -15 4 -31
14 -39 14 -10 15 -13 2 -13 -9 -1 -6 -5 7 -10 15 -6 21 -15 17 -24 -6 -15 20
-50 38 -52 4 -1 13 -2 19 -3 5 0 7 -5 4 -11 -3 -5 -1 -10 4 -10 6 0 11 7 11
17 0 9 3 13 7 10 3 -4 0 -18 -7 -31 l-13 -25 -43 36 c-24 20 -40 41 -37 46 3
6 1 7 -4 4 -6 -4 -69 51 -140 121 -144 141 -180 183 -123 142 19 -14 56 -37
82 -50z m338 -165 c0 -2 -7 -6 -16 -9 -9 -4 -13 -2 -8 5 4 8 -1 9 -15 4 -15
-4 -21 -2 -21 9 0 12 5 13 30 5 17 -6 30 -12 30 -14z m-44 -134 c-7 -10 28
-43 40 -39 5 2 10 0 11 -5 2 -4 15 -19 30 -34 35 -32 12 -18 -49 31 -46 36
-59 56 -37 56 5 0 8 -4 5 -9z m154 -115 c0 -11 -19 -15 -25 -6 -3 5 1 10 9 10
9 0 16 -2 16 -4z m115 -86 c3 -6 -1 -7 -9 -4 -18 7 -21 14 -7 14 6 0 13 -4 16
-10z"/>
<path d="M4730 6925 c0 -8 4 -15 9 -15 5 0 11 7 15 15 3 9 0 15 -9 15 -8 0
-15 -7 -15 -15z"/>
<path d="M9774 6905 c-177 -38 -304 -124 -551 -372 -100 -100 -215 -206 -255
-236 -156 -115 -342 -183 -535 -196 l-108 -7 80 -19 c64 -16 115 -19 260 -19
163 0 189 2 279 27 195 53 312 126 561 351 203 184 309 242 467 253 56 4 98 1
150 -12 111 -27 150 -49 340 -197 40 -31 98 -68 127 -82 31 -14 49 -27 40 -29
-7 -3 -43 -12 -79 -22 -144 -37 -279 -137 -393 -290 -33 -45 -92 -147 -134
-235 -172 -354 -204 -418 -243 -476 -223 -340 -643 -569 -1230 -673 -114 -21
-317 -49 -500 -71 -921 -110 -1251 -210 -1625 -494 -86 -64 -198 -175 -500
-491 -188 -197 -295 -294 -409 -374 -78 -54 -58 -52 57 5 239 120 387 228 782
574 186 163 330 261 506 344 290 138 620 201 1279 246 636 43 921 91 1215 205
244 94 408 197 566 354 173 174 251 306 388 662 123 320 182 424 303 534 105
95 229 147 433 181 39 7 38 7 -35 20 -106 18 -161 37 -256 89 -97 53 -158 100
-273 208 -150 140 -251 203 -389 238 -88 22 -226 24 -318 4z"/>
<path d="M5350 6242 c18 -17 36 -29 41 -26 5 3 6 -1 4 -8 -6 -15 129 -137 227
-205 201 -140 502 -249 801 -290 196 -26 695 -19 857 13 8 1 28 3 44 3 16 1
27 3 24 6 -13 13 -299 76 -633 140 -132 25 -298 57 -370 71 -311 62 -672 170
-895 269 -58 25 -111 49 -119 52 -8 4 0 -8 19 -25z m77 -39 c-4 -3 -1 -13 6
-22 11 -14 10 -14 -5 -2 -21 15 -23 31 -6 31 6 0 8 -3 5 -7z"/>
</g>
</svg>
