<?xml version="1.0" standalone="no"?>
<svg version="1.0" xmlns="http://www.w3.org/2000/svg"
 width="1536.000000pt" height="1024.000000pt" viewBox="0 0 1536.000000 1024.000000"
 preserveAspectRatio="xMidYMid meet">
<g transform="translate(0.000000,1024.000000) scale(0.100000,-0.100000)"
fill="#2B7A6A" stroke="none">
<path d="M8722 7320 c-181 -48 -258 -102 -527 -374 -208 -211 -225 -225 -310
-269 -91 -46 -194 -78 -295 -92 -50 -7 -53 -9 -30 -18 41 -17 305 -12 382 6
204 50 327 124 518 317 149 151 213 198 310 230 181 61 336 26 500 -110 25
-21 74 -56 108 -78 63 -40 63 -41 35 -47 -53 -12 -156 -56 -197 -85 -128 -89
-219 -231 -330 -516 -101 -262 -188 -406 -326 -546 -232 -233 -507 -331 -1150
-413 -482 -62 -881 -170 -1180 -320 -115 -58 -219 -124 -275 -176 -48 -44
-118 -133 -129 -163 -7 -21 -18 -28 112 71 182 137 436 243 753 313 237 52
440 78 974 125 209 19 424 49 530 76 299 74 520 192 688 365 160 165 231 297
351 644 96 277 171 405 288 496 64 50 95 66 171 90 55 17 75 34 40 34 -26 0
-169 64 -216 97 -23 15 -83 67 -134 115 -210 197 -316 249 -506 247 -47 0
-113 -8 -155 -19z"/>
<path d="M4961 6953 c39 -53 144 -152 216 -204 145 -105 281 -168 518 -237
192 -57 388 -88 765 -122 568 -51 791 -98 947 -199 131 -85 177 -219 117 -339
-65 -130 -242 -227 -646 -351 -709 -218 -1118 -411 -1339 -632 -94 -94 -122
-149 -127 -246 -5 -90 16 -140 89 -208 47 -44 79 -61 286 -155 152 -69 192
-177 92 -249 -57 -42 -123 -55 -248 -48 -97 4 -172 22 -262 61 -12 5 -18 -2
-27 -32 -17 -57 -17 -58 36 -80 118 -51 367 -69 516 -37 183 39 276 135 263
275 -10 110 -64 164 -276 271 -182 92 -221 133 -221 236 0 200 418 470 1009
655 69 21 262 73 430 114 424 105 531 145 662 248 210 165 194 440 -35 612
-186 140 -506 223 -1216 314 -620 80 -1128 197 -1494 346 -71 29 -72 29 -55 7z"/>
<path d="M5461 6420 c51 -79 259 -209 419 -263 157 -53 231 -62 537 -62 176 0
286 4 292 10 7 7 -31 18 -117 34 -421 78 -860 194 -1127 297 -19 8 -19 7 -4
-16z"/>
<path d="M9390 4748 c-73 -38 -84 -62 -88 -189 l-4 -109 -45 0 -45 0 6 -31 c3
-17 6 -35 6 -40 0 -5 18 -9 40 -9 l40 0 0 -230 0 -230 70 0 70 0 0 230 0 230
90 0 90 0 0 -230 0 -230 77 0 76 0 -6 230 -6 230 100 0 99 0 0 -230 0 -230 70
0 70 0 0 270 0 270 -170 0 -170 0 0 68 c0 129 26 169 101 159 l39 -5 0 43 c0
49 -10 55 -95 55 -60 0 -129 -32 -159 -73 -18 -24 -22 -47 -24 -138 l-4 -109
-89 0 -89 0 0 80 c0 98 16 136 63 148 17 5 42 5 55 1 21 -8 22 -6 22 35 0 51
-7 56 -89 56 -39 0 -70 -7 -101 -22z"/>
<path d="M8683 4743 c-160 -54 -242 -181 -250 -388 -9 -216 53 -352 194 -423
135 -69 339 -46 447 49 84 74 126 181 126 324 0 220 -70 354 -220 423 -74 33
-219 41 -297 15z m205 -93 c50 -23 89 -62 110 -110 53 -123 55 -343 5 -445
-53 -105 -178 -146 -283 -92 -53 27 -73 53 -101 132 -30 84 -32 283 -4 369 44
134 161 197 273 146z"/>
<path d="M4020 4331 l0 -421 86 0 87 0 -6 165 -5 165 48 0 48 0 83 -107 c46
-58 106 -132 132 -165 l49 -58 95 0 94 0 -28 33 c-15 19 -68 80 -118 137 -49
57 -105 121 -124 143 -27 31 -31 41 -20 48 8 5 19 9 24 9 6 0 34 16 63 36 66
44 102 111 102 192 0 98 -45 166 -140 210 -52 25 -65 26 -262 30 l-208 4 0
-421z m366 306 c50 -26 68 -63 69 -139 0 -114 -53 -160 -188 -162 l-82 -1 -3
164 -3 163 88 -4 c54 -3 100 -11 119 -21z"/>
<path d="M7850 4330 l0 -420 75 0 75 0 0 133 0 132 67 -75 c37 -41 92 -101
123 -133 l55 -58 88 3 88 3 -145 152 -146 151 119 109 c66 59 120 111 120 116
1 4 -32 7 -71 7 l-73 0 -112 -112 -113 -113 0 263 0 262 -75 0 -75 0 0 -420z"/>
<path d="M9990 4737 c-81 -41 -51 -157 40 -157 99 0 127 125 36 160 -35 13
-45 13 -76 -3z"/>
<path d="M6335 4617 l-60 -32 -3 -67 c-3 -66 -4 -68 -30 -68 -57 0 -72 -10
-72 -46 l0 -34 50 0 50 0 1 -177 c0 -111 5 -191 12 -213 24 -68 117 -101 227
-80 61 11 80 29 80 73 0 26 -2 28 -16 16 -8 -7 -38 -13 -66 -13 -41 -1 -53 3
-69 23 -17 21 -19 41 -19 197 l0 174 85 0 85 0 0 40 0 40 -85 0 -85 0 0 100
c0 74 -3 100 -12 99 -7 0 -40 -15 -73 -32z"/>
<path d="M6858 4459 c-149 -21 -237 -125 -238 -279 0 -124 56 -213 165 -261
65 -29 187 -31 264 -5 218 75 246 399 44 508 -26 14 -70 29 -98 33 -27 4 -57
8 -65 10 -8 1 -41 -1 -72 -6z m109 -80 c73 -27 113 -100 113 -204 0 -125 -56
-199 -150 -199 -68 0 -107 20 -136 69 -30 52 -42 151 -25 213 26 95 118 152
198 121z"/>
<path d="M4870 4433 c-61 -31 -113 -92 -130 -151 -13 -50 -13 -156 2 -204 15
-49 78 -123 129 -148 82 -42 249 -44 333 -4 27 13 37 26 45 58 5 22 9 42 7 43
-1 2 -22 -6 -45 -18 -79 -38 -188 -43 -246 -12 -36 20 -66 60 -80 106 -7 25
-11 48 -8 51 4 3 94 6 201 6 l195 0 -5 70 c-7 95 -39 155 -102 195 -43 26 -59
30 -145 33 -89 3 -100 2 -151 -25z m209 -69 c27 -22 51 -75 51 -111 0 -8 -37
-13 -126 -15 l-126 -3 5 39 c14 101 123 152 196 90z"/>
<path d="M7480 4451 c-116 -36 -200 -151 -200 -276 0 -117 74 -225 179 -260
76 -25 203 -24 263 3 25 11 48 28 51 38 12 43 17 74 13 74 -3 0 -21 -10 -41
-22 -79 -46 -182 -41 -246 11 -91 76 -90 265 2 333 59 44 158 39 221 -12 20
-17 40 -30 44 -30 4 0 4 21 1 47 -6 53 -27 77 -85 93 -42 11 -165 12 -202 1z"/>
<path d="M10356 4444 c-64 -20 -137 -92 -159 -159 -37 -108 -14 -234 55 -302
63 -62 123 -85 222 -86 111 -1 170 25 185 80 16 55 16 55 -39 26 -84 -44 -180
-32 -237 29 -55 58 -69 182 -30 258 52 105 182 122 275 37 l22 -20 0 37 c0 52
-15 75 -63 97 -51 23 -160 24 -231 3z"/>
<path d="M10865 4448 c-64 -24 -113 -67 -142 -125 -24 -51 -28 -69 -28 -148 0
-103 12 -134 78 -202 53 -55 116 -77 227 -77 94 -1 173 22 190 54 11 20 14 70
5 70 -3 0 -16 -6 -28 -14 -34 -21 -126 -37 -174 -30 -77 11 -138 68 -150 137
l-6 37 191 0 c105 0 193 3 195 8 2 4 1 40 -4 80 -10 95 -39 147 -103 187 -44
27 -59 30 -135 32 -47 1 -99 -3 -116 -9z m155 -73 c36 -19 60 -62 60 -110 l0
-35 -120 0 -120 0 0 25 c0 43 38 105 73 120 42 19 71 18 107 0z"/>
</g>
</svg>
