<svg xmlns="http://www.w3.org/2000/svg" viewBox="0 0 100 100">
  <!-- Green background -->
  <rect width="100" height="100" rx="18" fill="#2B7A6A"/>
  <!-- Stylised bird (wing + body + tail matching the logo shape) -->
  <g fill="white">
    <!-- Upper wing sweep -->
    <path d="M18 38 C24 30 36 26 52 28 C62 29 70 32 76 36
             C68 34 58 33 48 35 C36 38 26 44 22 50
             C19 45 17 41 18 38 Z"/>
    <!-- Body -->
    <path d="M48 35 C60 33 72 36 78 38
             C76 42 70 46 62 48 C54 50 46 50 40 52
             C38 46 40 40 48 35 Z"/>
    <!-- Tail sweep down -->
    <path d="M40 52 C44 54 46 60 42 68
             C38 64 34 58 36 52
             C37 51 39 51 40 52 Z"/>
    <!-- Second tail feather -->
    <path d="M44 56 C48 60 50 66 47 72
             C43 68 41 62 43 57 Z"/>
  </g>
</svg>
