<?xml version="1.0" standalone="no"?>
<svg version="1.0" xmlns="http://www.w3.org/2000/svg"
 width="1536.000000pt" height="1024.000000pt" viewBox="0 0 1536.000000 1024.000000"
 preserveAspectRatio="xMidYMid meet">
<g transform="translate(0.000000,1024.000000) scale(0.100000,-0.100000)"
fill="#2B7A6A" stroke="none">
<path d="M4420 7504 c0 -4 35 -50 77 -103 342 -427 742 -666 1363 -816 154
-37 459 -92 665 -120 477 -65 662 -97 857 -146 434 -109 747 -288 844 -484 33
-66 36 -80 32 -137 -5 -81 -38 -149 -103 -212 -150 -147 -367 -239 -915 -387
-453 -123 -709 -227 -950 -387 -247 -164 -401 -336 -609 -681 -162 -269 -382
-541 -557 -693 -49 -42 -102 -88 -119 -103 l-30 -26 52 26 c281 137 479 318
833 760 155 194 341 391 458 487 106 87 275 197 399 261 269 137 463 198 1083
337 495 111 763 257 863 468 97 207 -4 417 -297 614 -286 191 -686 319 -1601
513 -1020 215 -1420 335 -1890 565 -165 81 -351 188 -417 241 -21 17 -38 27
-38 23z"/>
<path d="M9770 7199 c-177 -46 -308 -136 -511 -350 -299 -316 -460 -400 -874
-455 l-50 -7 75 -15 c118 -23 363 -19 481 7 168 37 330 111 458 207 33 25 111
90 173 146 203 181 346 256 508 265 159 10 262 -29 404 -151 104 -90 158 -123
224 -141 l47 -12 -55 -7 c-121 -17 -280 -103 -378 -204 -85 -89 -152 -199
-275 -454 -123 -253 -191 -366 -294 -490 -122 -147 -247 -244 -438 -341 -258
-132 -545 -201 -1135 -272 -733 -89 -994 -142 -1271 -262 -310 -134 -529 -309
-821 -659 -241 -289 -446 -496 -585 -594 -35 -24 -61 -45 -60 -47 8 -8 135 50
212 97 191 116 299 206 620 520 299 293 436 400 643 504 169 85 329 136 570
180 215 40 333 52 857 81 615 36 948 107 1275 276 128 66 248 158 364 280 159
167 253 327 372 632 118 304 193 437 306 542 100 95 220 151 393 184 l90 18
-45 7 c-189 31 -333 107 -509 269 -104 96 -217 178 -280 206 -148 63 -342 79
-491 40z"/>
<path d="M5330 6581 c0 -14 169 -171 245 -228 205 -154 534 -275 865 -319 150
-19 552 -22 740 -5 124 11 184 20 178 26 -3 3 -222 47 -773 156 -355 70 -601
129 -795 193 -142 46 -399 147 -437 172 -13 8 -23 10 -23 5z"/>
</g>
</svg>
